<?xml version="1.0" encoding="utf-8"?>
<!-- Generator: Adobe Illustrator 19.0.1, SVG Export Plug-In . SVG Version: 6.00 Build 0)  -->
<svg version="1.1" xmlns="http://www.w3.org/2000/svg" xmlns:xlink="http://www.w3.org/1999/xlink" x="0px" y="0px"
	 viewBox="0 0 664 226" style="enable-background:new 0 0 664 226;" xml:space="preserve">
<style type="text/css">
	.st0{display:none;}
	.st1{display:inline;}
	.st2{opacity:0.5;}
	.st3{fill:#5E7C76;}
</style>
<g id="Layer_1" class="st0">
	<g class="st1">
		<path d="M431.7,437.7c0.1,2.8-0.1,5.6-0.7,8.3c-1.1,5.4,0.5,10,3.7,14.4c3.1,4.3,4.7,9,3.6,14.4c-1.4,6.8-7.7,9.9-13.9,6.8
			c-4.4-2.2-7.7-5.8-8.8-10.6c-1.3-5.6-4.3-10-8.2-13.9c-10.4-10.6-12.2-32.2-5.7-43.9c5-8.9,14.9-9.7,21.3-1.7
			C429.3,419.1,431.7,428,431.7,437.7z"/>
		<path d="M431.7,328.8c0.1,2.8-0.1,5.6-0.7,8.3c-1.1,5.2,0.5,9.7,3.5,13.9c3.3,4.5,4.9,9.4,3.8,14.9c-1.4,6.7-7.9,9.8-14,6.6
			c-4.3-2.2-7.3-5.7-8.5-10.2c-1.6-5.7-4.7-10.3-8.6-14.7c-7.7-8.6-9.8-19.2-9.1-30.5c0.3-4.8,1.5-9.4,4.1-13.5
			c5.2-8.4,13.9-9.1,20.4-1.7C429.4,309.6,431.6,318.9,431.7,328.8z"/>
		<path d="M485.9-186.2c0,12.4-3.7,22.4-11.9,30.7c-2.8,2.8-4.2,6.2-5.3,10c-1.9,6.4-5.5,11.2-12.3,12.8c-4.2,1-8.4-1.3-10-5.3
			c-2.2-5.6-1.5-11,2-15.7c4.4-5.9,5.2-12.1,4.1-19.2c-1.7-11,1-21.3,7.5-30.1c4.4-5.9,11.1-9.1,18.3-3.9c3.7,2.7,5.3,7.1,6.5,11.4
			C485.7-192.2,486.2-188.8,485.9-186.2z"/>
		<path d="M431.7,1.7c0.1,3.5-0.4,6.8-0.9,10.3c-0.6,4.2,0.9,8.1,3.5,11.5c2.3,3.1,3.9,6.5,4.3,10.4c0.6,5.5-1.5,10.2-5.6,12.1
			c-3.8,1.7-9.5,0.1-12.9-3.6c-2.7-2.9-4.3-6.5-5.3-10.3c-1-3.6-2.8-6.6-5.5-9.2c-10.6-10.3-14.4-29.8-8.5-43.3
			c0.6-1.3,1.2-2.5,2-3.7c4.7-7.1,12.3-8.1,18.6-2.3c7,6.5,9.5,15.1,10.4,24.3C431.8-0.9,431.7,0.4,431.7,1.7z"/>
		<path d="M485.9,253c-0.4,8.6-2.8,18.2-10.6,25.8c-3.3,3.3-5.4,7.2-6.6,11.8c-1.5,5.5-4.7,9.9-10.2,12.2c-5,2.1-9.8,0.2-12-4.8
			c-1.5-3.3-1.5-6.7-0.5-10.1c1-3.4,2.7-6.4,4.9-9.3c2.7-3.6,2.8-7.9,2.1-12.3c-2-11.7,0-22.6,6.7-32.5c1-1.5,2.2-2.8,3.6-3.9
			c6.4-5.2,13.8-4,18.2,2.8C485,238.4,486,244.6,485.9,253z"/>
		<path d="M486-78c-0.1,11.7-2.4,21-9.3,28.3c-4.3,4.6-6.8,9.7-8.7,15.5c-1.3,4.1-4.3,7.6-8.6,9.4c-7.1,3.1-13.5-0.8-14-8.6
			c-0.3-4.1,0.5-8.1,3.1-11.4c4.6-5.9,5-12.2,4.1-19.5c-1.4-11.2,1-21.8,8.5-30.9c6.6-7.9,16.3-7,21.2,2.1
			C485-87.7,486.1-82.1,486-78z"/>
		<path d="M431.7-107.6c0.1,2.6,0.1,5.2-0.5,7.8c-1.2,5.6,0.2,10.6,3.6,15.2c3.1,4.1,4.5,8.7,3.6,13.9c-1.2,7.1-7.3,10.3-13.8,7.2
			c-4.7-2.3-7.7-6.1-9.1-11.1c-1.5-5.2-4-9.7-7.9-13.6c-5.3-5.2-7.6-11.9-8.9-19.1c-1.5-8.5-1-16.7,3-24.5
			c4.7-9.1,14.6-10.1,21.3-2.2c5.6,6.5,7.8,14.3,8.6,22.7C431.8-110,431.7-108.8,431.7-107.6z"/>
		<path d="M431.7,110.5c0.2,2.9-0.2,5.8-0.7,8.6c-0.9,5.1,0.4,9.6,3.4,13.6c3.2,4.3,4.8,9,4,14.4c-1,6.7-7,10.2-13.2,7.7
			c-4.3-1.7-7.6-5-8.8-9.2c-2-6.8-6-12.1-10.2-17.6c-8.8-11.5-10.2-24.6-5.9-38.4c0.8-2.4,2.1-4.5,3.7-6.5c4.8-5.9,13-5.9,18.8,0.8
			C429.4,91.5,431.6,100.7,431.7,110.5z"/>
		<path d="M485.9,359.5c0,8.9-2.1,17.1-7,24.6c-1,1.5-2.3,2.7-3.5,3.9c-3.6,3.4-5.8,7.5-6.7,12.3c-1.1,5.7-7.6,11.7-13.3,12.3
			c-3.3,0.4-7-1.6-8.5-4.8c-2.8-5.8-1.7-11.3,1.6-16.4c2.9-4.4,5.4-8.7,4.7-14.2c-0.3-1.8-0.7-3.7-0.8-5.5
			c-0.8-10.3,1.1-20.1,7.2-28.6c2.8-3.9,6.3-7.1,11.6-7.2c5.5-0.1,8.7,3.2,11.2,7.5C484.8,347.7,485.9,353.1,485.9,359.5z"/>
		<path d="M485.9,144.7c-0.4,8.5-3.3,18.5-11.8,26.5c-2.5,2.4-4.1,5.5-5,8.9c-1.5,5.9-4.5,10.8-10.3,13.5c-5.1,2.4-10.7,0.2-12.6-5
			c-2-5.3-1.4-10.6,2-14.9c4.8-6.1,5.2-12.6,4.3-20c-1.4-11,1-21.3,8-30.2c6.9-8.7,16.9-7.7,22,2.2
			C484.9,130.4,485.9,135.2,485.9,144.7z"/>
		<path d="M431.7,219.7c0.1,2.8,0,5.4-0.6,7.9c-1.2,5.4,0.3,10.1,3.5,14.4c2.3,3,3.6,6.5,4,10.3c0.5,4.8-1.8,9.8-5.3,11.5
			c-3.9,1.8-9.4,0.6-12.8-3c-2.6-2.7-4.5-5.9-5.4-9.6c-1.1-4.7-3.7-8.4-7.1-11.8c-3.7-3.6-6-8-7.6-12.9c-2.7-8.4-3.4-16.9-1-25.6
			c0.8-2.9,2-5.6,3.9-8c4.6-6,11.5-6.9,17.3-1.9c6.2,5.3,8.9,12.5,10.5,20.2C431.6,214.1,431.8,217,431.7,219.7z"/>
		<path d="M486,32.6c-0.3,11.2-3.2,21.2-11.6,29.2c-3.1,3-4.6,6.9-5.8,11c-1.4,4.8-4,8.8-8.6,11.2c-7,3.6-13.8,0-14.5-8
			c-0.4-4.3,0.3-8.5,3.2-12.1c4-5,5.3-10.5,4.2-17c-1.7-9.5-0.1-18.7,4.4-27.3c2-3.9,4.5-7.5,8.6-9.5c6.3-3.1,12.4-1.1,16,5
			C484.8,20.6,486.1,26.4,486,32.6z"/>
	</g>
</g>
<g id="Layer_1_copy" class="st0">
	<g class="st1">
		<path d="M365.9-185c0,9.5-2.8,17.2-9.1,23.6c-2.2,2.2-3.3,4.8-4.1,7.6c-1.4,4.9-4.2,8.6-9.5,9.8c-3.2,0.7-6.4-1-7.6-4.1
			c-1.7-4.3-1.1-8.5,1.5-12c3.4-4.5,4-9.3,3.2-14.8c-1.3-8.4,0.7-16.4,5.7-23.1c3.4-4.6,8.5-7,14-3c2.9,2.1,4.1,5.4,5,8.8
			C365.7-189.6,366-187,365.9-185z"/>
		<path d="M324.1-119.5c0,2,0,4-0.4,6c-0.9,4.3,0.1,8.1,2.8,11.7c2.4,3.1,3.4,6.7,2.8,10.7c-0.9,5.4-5.6,7.9-10.6,5.6
			c-3.6-1.7-5.9-4.7-7-8.5c-1.1-4-3.1-7.5-6.1-10.4c-4.1-4-5.9-9.2-6.9-14.7c-1.2-6.5-0.8-12.9,2.3-18.8c3.6-7,11.2-7.7,16.4-1.7
			c4.3,5,6,11,6.6,17.4C324.2-121.4,324.1-120.5,324.1-119.5z"/>
		<path d="M365.9-56.7c0,9.5-2.8,17.2-9.1,23.6c-2.2,2.2-3.3,4.8-4.1,7.6c-1.4,4.9-4.2,8.6-9.5,9.8c-3.2,0.7-6.4-1-7.6-4.1
			c-1.7-4.3-1.1-8.5,1.5-12c3.4-4.5,4-9.3,3.2-14.8c-1.3-8.4,0.7-16.4,5.7-23.1c3.4-4.6,8.5-7,14-3c2.9,2.1,4.1,5.4,5,8.8
			C365.7-61.3,366-58.6,365.9-56.7z"/>
		<path d="M324.1,8.8c0,2,0,4-0.4,6c-0.9,4.3,0.1,8.1,2.8,11.7c2.4,3.1,3.4,6.7,2.8,10.7c-0.9,5.4-5.6,7.9-10.6,5.6
			c-3.6-1.7-5.9-4.7-7-8.5c-1.1-4-3.1-7.5-6.1-10.4c-4.1-4-5.9-9.2-6.9-14.7c-1.2-6.5-0.8-12.9,2.3-18.8c3.6-7,11.2-7.7,16.4-1.7
			c4.3,5,6,11,6.6,17.4C324.2,7,324.1,7.9,324.1,8.8z"/>
		<path d="M365.9,71.7c0,9.5-2.8,17.2-9.1,23.6c-2.2,2.2-3.3,4.8-4.1,7.6c-1.4,4.9-4.2,8.6-9.5,9.8c-3.2,0.7-6.4-1-7.6-4.1
			c-1.7-4.3-1.1-8.5,1.5-12c3.4-4.5,4-9.3,3.2-14.8c-1.3-8.4,0.7-16.4,5.7-23.1c3.4-4.6,8.5-7,14-3c2.9,2.1,4.1,5.4,5,8.8
			C365.7,67.1,366,69.7,365.9,71.7z"/>
		<path d="M324.1,137.2c0,2,0,4-0.4,6c-0.9,4.3,0.1,8.1,2.8,11.7c2.4,3.1,3.4,6.7,2.8,10.7c-0.9,5.4-5.6,7.9-10.6,5.6
			c-3.6-1.7-5.9-4.7-7-8.5c-1.1-4-3.1-7.5-6.1-10.4c-4.1-4-5.9-9.2-6.9-14.7c-1.2-6.5-0.8-12.9,2.3-18.8c3.6-7,11.2-7.7,16.4-1.7
			c4.3,5,6,11,6.6,17.4C324.2,135.3,324.1,136.2,324.1,137.2z"/>
		<path d="M365.9,200c0,9.5-2.8,17.2-9.1,23.6c-2.2,2.2-3.3,4.8-4.1,7.6c-1.4,4.9-4.2,8.6-9.5,9.8c-3.2,0.7-6.4-1-7.6-4.1
			c-1.7-4.3-1.1-8.5,1.5-12c3.4-4.5,4-9.3,3.2-14.8c-1.3-8.4,0.7-16.4,5.7-23.1c3.4-4.6,8.5-7,14-3c2.9,2.1,4.1,5.4,5,8.8
			C365.7,195.4,366,198,365.9,200z"/>
		<path d="M324.1,265.5c0,2,0,4-0.4,6c-0.9,4.3,0.1,8.1,2.8,11.7c2.4,3.1,3.4,6.7,2.8,10.7c-0.9,5.4-5.6,7.9-10.6,5.6
			c-3.6-1.7-5.9-4.7-7-8.5c-1.1-4-3.1-7.5-6.1-10.4c-4.1-4-5.9-9.2-6.9-14.7c-1.2-6.5-0.8-12.9,2.3-18.8c3.6-7,11.2-7.7,16.4-1.7
			c4.3,5,6,11,6.6,17.4C324.2,263.7,324.1,264.6,324.1,265.5z"/>
		<path d="M365.9,328.4c0,9.5-2.8,17.2-9.1,23.6c-2.2,2.2-3.3,4.8-4.1,7.6c-1.4,4.9-4.2,8.6-9.5,9.8c-3.2,0.7-6.4-1-7.6-4.1
			c-1.7-4.3-1.1-8.5,1.5-12c3.4-4.5,4-9.3,3.2-14.8c-1.3-8.4,0.7-16.4,5.7-23.1c3.4-4.6,8.5-7,14-3c2.9,2.1,4.1,5.4,5,8.8
			C365.7,323.8,366,326.4,365.9,328.4z"/>
		<path d="M324.1,393.9c0,2,0,4-0.4,6c-0.9,4.3,0.1,8.1,2.8,11.7c2.4,3.1,3.4,6.7,2.8,10.7c-0.9,5.4-5.6,7.9-10.6,5.6
			c-3.6-1.7-5.9-4.7-7-8.5c-1.1-4-3.1-7.5-6.1-10.4c-4.1-4-5.9-9.2-6.9-14.7c-1.2-6.5-0.8-12.9,2.3-18.8c3.6-7,11.2-7.7,16.4-1.7
			c4.3,5,6,11,6.6,17.4C324.2,392,324.1,392.9,324.1,393.9z"/>
	</g>
</g>
<g id="Layer_1_copy_2">
	<g class="st2">
		<path class="st3" d="M629.5,75.9c-9.3,2.3-17.4,1.3-25-3.3c-2.6-1.6-5.4-2-8.4-2.2c-5.1-0.3-9.3-2.1-11.8-6.9
			c-1.5-2.9-0.5-6.5,2.2-8.4c3.8-2.7,8-3.1,12.1-1.3c5.2,2.2,10,1.7,15.1-0.4c7.9-3.3,16.1-3.1,23.8,0.1c5.2,2.2,8.8,6.7,6.2,12.9
			c-1.4,3.3-4.3,5.3-7.4,6.9C634,74.6,631.5,75.6,629.5,75.9z"/>
		<path class="st3" d="M556.1,50.7c-1.9,0.5-3.9,1-5.9,1c-4.4,0.1-7.9,2.1-10.7,5.5c-2.5,3-5.7,4.9-9.7,5.2c-5.5,0.4-9-3.6-7.9-9
			c0.8-3.9,3.2-6.9,6.6-8.8c3.6-2,6.6-4.7,8.7-8.3c2.9-4.9,7.5-7.9,12.6-10.1c6-2.7,12.3-3.7,18.8-2.1c7.7,1.9,10.1,9.1,5.5,15.5
			c-3.9,5.3-9.3,8.4-15.4,10.5C557.9,50.3,557,50.4,556.1,50.7z"/>
		<path class="st3" d="M504.8,106c-9.3,2.3-17.4,1.3-25-3.3c-2.6-1.6-5.4-2-8.4-2.2c-5.1-0.3-9.3-2.1-11.8-6.9
			c-1.5-2.9-0.5-6.5,2.2-8.4c3.8-2.7,8-3.1,12.1-1.3c5.2,2.2,10,1.7,15.1-0.4c7.9-3.3,16.1-3.1,23.8,0.1c5.2,2.2,8.8,6.7,6.2,12.9
			c-1.4,3.3-4.3,5.3-7.4,6.9C509.2,104.7,506.7,105.7,504.8,106z"/>
		<path class="st3" d="M431.3,80.8c-1.9,0.5-3.9,1-5.9,1c-4.4,0.1-7.9,2.1-10.7,5.5c-2.5,3-5.7,4.9-9.7,5.2c-5.5,0.4-9-3.6-7.9-9
			c0.8-3.9,3.2-6.9,6.6-8.8c3.6-2,6.6-4.7,8.7-8.3c2.9-4.9,7.5-7.9,12.6-10.1c6-2.7,12.3-3.7,18.8-2.1c7.7,1.9,10.1,9.1,5.5,15.5
			c-3.9,5.3-9.3,8.4-15.4,10.5C433.1,80.4,432.2,80.5,431.3,80.8z"/>
		<path class="st3" d="M380,136c-9.3,2.3-17.4,1.3-25-3.3c-2.6-1.6-5.4-2-8.4-2.2c-5.1-0.3-9.3-2.1-11.8-6.9
			c-1.5-2.9-0.5-6.5,2.2-8.4c3.8-2.7,8-3.1,12.1-1.3c5.2,2.2,10,1.7,15.1-0.4c7.9-3.3,16.1-3.1,23.8,0.1c5.2,2.2,8.8,6.7,6.2,12.9
			c-1.4,3.3-4.3,5.3-7.4,6.9C384.4,134.8,382,135.8,380,136z"/>
		<path class="st3" d="M306.5,110.9c-1.9,0.5-3.9,1-5.9,1c-4.4,0.1-7.9,2.1-10.7,5.5c-2.5,3-5.7,4.9-9.7,5.2c-5.5,0.4-9-3.6-7.9-9
			c0.8-3.9,3.2-6.9,6.6-8.8c3.6-2,6.6-4.7,8.7-8.3c2.9-4.9,7.5-7.9,12.6-10.1c6-2.7,12.3-3.7,18.8-2.1c7.7,1.9,10.1,9.1,5.5,15.5
			c-3.9,5.3-9.3,8.4-15.4,10.5C308.4,110.5,307.4,110.6,306.5,110.9z"/>
		<path class="st3" d="M255.2,166.1c-9.3,2.3-17.4,1.3-25-3.3c-2.6-1.6-5.4-2-8.4-2.2c-5.1-0.3-9.3-2.1-11.8-6.9
			c-1.5-2.9-0.5-6.5,2.2-8.4c3.8-2.7,8-3.1,12.1-1.3c5.2,2.2,10,1.7,15.1-0.4c7.9-3.3,16.1-3.1,23.8,0.1c5.2,2.2,8.8,6.7,6.2,12.9
			c-1.4,3.3-4.3,5.3-7.4,6.9C259.7,164.9,257.2,165.9,255.2,166.1z"/>
		<path class="st3" d="M181.8,141c-1.9,0.5-3.9,1-5.9,1c-4.4,0.1-7.9,2.1-10.7,5.5c-2.5,3-5.7,4.9-9.7,5.2c-5.5,0.4-9-3.6-7.9-9
			c0.8-3.9,3.2-6.9,6.6-8.8c3.6-2,6.6-4.7,8.7-8.3c2.9-4.9,7.5-7.9,12.6-10.1c6-2.7,12.3-3.7,18.8-2.1c7.7,1.9,10.1,9.1,5.5,15.5
			c-3.9,5.3-9.3,8.4-15.4,10.5C183.6,140.6,182.7,140.7,181.8,141z"/>
		<path class="st3" d="M130.4,196.2c-9.3,2.3-17.4,1.3-25-3.3c-2.6-1.6-5.4-2-8.4-2.2c-5.1-0.3-9.3-2.1-11.8-6.9
			c-1.5-2.9-0.5-6.5,2.2-8.4c3.8-2.7,8-3.1,12.1-1.3c5.2,2.2,10,1.7,15.1-0.4c7.9-3.3,16.1-3.1,23.8,0.1c5.2,2.2,8.8,6.7,6.2,12.9
			c-1.4,3.3-4.3,5.3-7.4,6.9C134.9,195,132.4,196,130.4,196.2z"/>
		<path class="st3" d="M57,171.1c-1.9,0.5-3.9,1-5.9,1c-4.4,0.1-7.9,2.1-10.7,5.5c-2.5,3-5.7,4.9-9.7,5.2c-5.5,0.4-9-3.6-7.9-9
			c0.8-3.9,3.2-6.9,6.6-8.8c3.6-2,6.6-4.7,8.7-8.3c2.9-4.9,7.5-7.9,12.6-10.1c6-2.7,12.3-3.7,18.8-2.1c7.7,1.9,10.1,9.1,5.5,15.5
			c-3.9,5.3-9.3,8.4-15.4,10.5C58.8,170.7,57.9,170.8,57,171.1z"/>
	</g>
</g>
</svg>
